<svg width="30" height="30" viewBox="0 0 30 30" fill="none" xmlns="http://www.w3.org/2000/svg">
<path d="M19.9985 7.62933C16.2973 7.62933 13.2173 10.3593 12.6048 13.8856L9.77229 13.8806C9.21729 12.3581 7.83354 11.3793 6.24854 11.3793C4.17729 11.3793 2.49854 13.0581 2.49854 15.1293C2.49854 17.2006 4.17729 18.8793 6.24854 18.8793C7.83354 18.8793 9.22479 17.8943 9.78104 16.3793L12.5998 16.3743C13.2123 19.9005 16.2973 22.6293 19.9985 22.6293C24.141 22.6293 27.4985 19.2718 27.4985 15.1293C27.4985 10.9868 24.141 7.62933 19.9985 7.62933ZM19.9985 10.1293C22.7598 10.1293 24.9985 12.3681 24.9985 15.1293C24.9985 17.8906 22.7598 20.1293 19.9985 20.1293C17.2373 20.1293 14.9985 17.8906 14.9985 15.1293C14.9985 12.3681 17.2373 10.1293 19.9985 10.1293ZM6.24854 13.8793C6.93854 13.8793 7.49854 14.4393 7.49854 15.1293C7.49854 15.8193 6.93854 16.3793 6.24854 16.3793C5.55854 16.3793 4.99854 15.8193 4.99854 15.1293C4.99854 14.4393 5.55854 13.8793 6.24854 13.8793ZM18.7485 13.8793C18.0585 13.8793 17.4985 14.4393 17.4985 15.1293C17.4985 15.8193 18.0585 16.3793 18.7485 16.3793H21.2485C21.9385 16.3793 22.4985 15.8193 22.4985 15.1293C22.4985 14.4393 21.9385 13.8793 21.2485 13.8793H18.7485Z" fill="#F8F8FF"/>
</svg>
