<svg width="20" height="20" viewBox="0 0 20 20" fill="none" xmlns="http://www.w3.org/2000/svg">
<path fill-rule="evenodd" clip-rule="evenodd" d="M5.38727 20C5.15999 19.9398 4.92216 19.907 4.70789 19.814C3.85518 19.4437 3.3541 18.7907 3.27348 17.8605C3.22975 17.3563 3.25115 16.8462 3.25084 16.3389C3.2496 12.7116 3.2496 9.08434 3.25084 5.45705V5.31349H4.71223V5.46512C4.71223 9.49178 4.71223 13.5182 4.71223 17.5445C4.70846 17.6915 4.71957 17.8385 4.74541 17.9833C4.82231 18.3507 5.07533 18.5588 5.47378 18.5783C5.78696 18.5938 6.10138 18.5891 6.41518 18.5898C9.27513 18.5976 12.135 18.6038 14.9947 18.6084C15.157 18.6122 15.319 18.5907 15.4747 18.5448C15.7674 18.4496 15.9001 18.2102 15.9423 17.9203C15.961 17.7784 15.9693 17.6352 15.9671 17.4921C15.9605 13.4818 15.953 9.4708 15.9445 5.45922V5.30512H16.0896C16.4654 5.30512 16.8415 5.30977 17.217 5.30202C17.329 5.29984 17.3513 5.33767 17.351 5.44C17.3493 7.07535 17.3485 8.7107 17.3485 10.346C17.3485 12.7603 17.3485 15.1746 17.3485 17.5888C17.3485 18.4946 16.9612 19.1907 16.1938 19.6713C15.9256 19.8358 15.625 19.94 15.3125 19.9767C15.2828 19.9825 15.2534 19.99 15.2245 19.9991L5.38727 20Z" fill="#182C40"/>
<path fill-rule="evenodd" clip-rule="evenodd" d="M12.9687 0C13.143 0.0310078 13.3197 0.052403 13.4912 0.0948836C13.9253 0.203411 14.2974 0.410853 14.4651 0.854884C14.5306 1.04115 14.5656 1.23672 14.569 1.43411C14.5836 1.88713 14.5737 2.34078 14.5737 2.79411V2.93395H19.7795V4.36868H0.764038V2.94233H6.04187C6.04528 2.88806 6.04962 2.84341 6.04993 2.79876C6.05303 2.36093 6.06326 1.92279 6.05582 1.48496C6.04156 0.619225 6.53613 0.213643 7.23412 0.0706976C7.37737 0.0415503 7.52311 0.0241861 7.66822 0.00155048L12.9687 0ZM13.2264 2.93023C13.2297 2.91491 13.232 2.89937 13.2332 2.88372C13.2332 2.57364 13.2161 2.26357 13.2332 1.95349C13.2524 1.56093 12.9426 1.32806 12.6078 1.3262C11.0574 1.31773 9.50698 1.30977 7.9566 1.30233C7.6707 1.30233 7.46047 1.4645 7.38853 1.74015C7.38055 1.76205 7.37534 1.78487 7.37303 1.80806C7.37303 2.18016 7.37303 2.54977 7.37303 2.92992L13.2264 2.93023Z" fill="#182C40"/>
<path fill-rule="evenodd" clip-rule="evenodd" d="M6.67689 7.95597H8.00712C8.0096 8.00217 8.01394 8.0431 8.01394 8.08403V16.6279C8.01394 16.8509 8.01394 16.8521 7.79378 16.8536C7.46448 16.8558 7.13518 16.8536 6.80588 16.8598C6.71285 16.8623 6.68185 16.8267 6.68185 16.7417C6.68185 16.5482 6.67658 16.3544 6.67658 16.1609C6.67658 14.0652 6.67658 11.9695 6.67658 9.8738C6.67658 9.28527 6.67658 8.69612 6.67658 8.10636L6.67689 7.95597Z" fill="#182C40"/>
<path fill-rule="evenodd" clip-rule="evenodd" d="M13.8967 16.8183C13.4713 16.8183 13.0614 16.8183 12.6512 16.8149C12.6257 16.8149 12.5913 16.7712 12.578 16.7405C12.5646 16.7098 12.5736 16.6719 12.5736 16.6369C12.5736 13.7931 12.5736 10.9494 12.5736 8.10574V7.98574H13.897L13.8967 16.8183Z" fill="#182C40"/>
<path fill-rule="evenodd" clip-rule="evenodd" d="M10.9947 16.8202H10.1718C10.04 16.8202 9.9082 16.8202 9.77673 16.8242C9.70758 16.8267 9.67564 16.8012 9.67533 16.733C9.67533 16.6902 9.67161 16.6478 9.67161 16.6053C9.67161 13.7767 9.67161 10.9483 9.67161 8.12V7.9786H9.80774C10.1566 7.9786 10.5054 7.98698 10.8539 7.9786C10.9798 7.9755 10.9978 8.01984 10.9975 8.13085C10.9944 9.82015 10.9938 11.5095 10.9956 13.1988C10.9956 14.3417 10.9956 15.4846 10.9956 16.6276L10.9947 16.8202Z" fill="#182C40"/>
</svg>
