<svg width="20" height="20" viewBox="0 0 20 20" fill="none" xmlns="http://www.w3.org/2000/svg">
<path fill-rule="evenodd" clip-rule="evenodd" d="M4.62323 20C4.39595 19.9398 4.15812 19.907 3.94386 19.814C3.09114 19.4437 2.59006 18.7907 2.50944 17.8605C2.46572 17.3563 2.48711 16.8462 2.4868 16.3389C2.48556 12.7116 2.48556 9.08434 2.4868 5.45705V5.31349H3.9482V5.46512C3.9482 9.49178 3.9482 13.5182 3.9482 17.5445C3.94442 17.6915 3.95553 17.8385 3.98137 17.9833C4.05827 18.3507 4.3113 18.5588 4.70975 18.5783C5.02292 18.5938 5.33734 18.5891 5.65114 18.5898C8.51109 18.5976 11.3709 18.6038 14.2307 18.6084C14.393 18.6122 14.5549 18.5907 14.7107 18.5448C15.0034 18.4496 15.1361 18.2102 15.1783 17.9203C15.1969 17.7784 15.2052 17.6352 15.2031 17.4921C15.1965 13.4818 15.1889 9.4708 15.1804 5.45922V5.30512H15.3256C15.7014 5.30512 16.0775 5.30977 16.453 5.30202C16.5649 5.29984 16.5873 5.33767 16.587 5.44C16.5853 7.07535 16.5845 8.7107 16.5845 10.346C16.5845 12.7603 16.5845 15.1746 16.5845 17.5888C16.5845 18.4946 16.1972 19.1907 15.4297 19.6713C15.1616 19.8358 14.8609 19.94 14.5485 19.9767C14.5188 19.9825 14.4894 19.99 14.4604 19.9991L4.62323 20Z" fill="white"/>
<path fill-rule="evenodd" clip-rule="evenodd" d="M12.2047 0C12.3789 0.0310078 12.5557 0.052403 12.7271 0.0948836C13.1612 0.203411 13.5333 0.410853 13.7011 0.854884C13.7665 1.04115 13.8016 1.23672 13.805 1.43411C13.8195 1.88713 13.8096 2.34078 13.8096 2.79411V2.93395H19.0155V4.36868H0V2.94233H5.27783C5.28124 2.88806 5.28558 2.84341 5.28589 2.79876C5.28899 2.36093 5.29922 1.92279 5.29178 1.48496C5.27752 0.619225 5.77209 0.213643 6.47008 0.0706976C6.61333 0.0415503 6.75907 0.0241861 6.90419 0.00155048L12.2047 0ZM12.4623 2.93023C12.4657 2.91491 12.468 2.89937 12.4691 2.88372C12.4691 2.57364 12.4521 2.26357 12.4691 1.95349C12.4884 1.56093 12.1786 1.32806 11.8437 1.3262C10.2933 1.31773 8.74294 1.30977 7.19256 1.30233C6.90667 1.30233 6.69643 1.4645 6.6245 1.74015C6.61651 1.76205 6.6113 1.78487 6.60899 1.80806C6.60899 2.18016 6.60899 2.54977 6.60899 2.92992L12.4623 2.93023Z" fill="white"/>
<path fill-rule="evenodd" clip-rule="evenodd" d="M5.91285 7.95597H7.24308C7.24556 8.00217 7.2499 8.0431 7.2499 8.08403V16.6279C7.2499 16.8509 7.2499 16.8521 7.02975 16.8536C6.70044 16.8558 6.37114 16.8536 6.04184 16.8598C5.94882 16.8623 5.91781 16.8267 5.91781 16.7417C5.91781 16.5482 5.91254 16.3544 5.91254 16.1609C5.91254 14.0652 5.91254 11.9695 5.91254 9.8738C5.91254 9.28527 5.91254 8.69612 5.91254 8.10636L5.91285 7.95597Z" fill="white"/>
<path fill-rule="evenodd" clip-rule="evenodd" d="M13.1327 16.8183C12.7073 16.8183 12.2973 16.8183 11.8871 16.8149C11.8617 16.8149 11.8273 16.7712 11.8139 16.7405C11.8006 16.7098 11.8096 16.6719 11.8096 16.6369C11.8096 13.7931 11.8096 10.9494 11.8096 8.10574V7.98574H13.133L13.1327 16.8183Z" fill="white"/>
<path fill-rule="evenodd" clip-rule="evenodd" d="M10.2307 16.8202H9.40773C9.27595 16.8202 9.14417 16.8202 9.01269 16.8242C8.94355 16.8267 8.91161 16.8012 8.9113 16.733C8.9113 16.6902 8.90758 16.6478 8.90758 16.6053C8.90758 13.7767 8.90758 10.9483 8.90758 8.12V7.9786H9.0437C9.39254 7.9786 9.74137 7.98698 10.0899 7.9786C10.2158 7.9755 10.2338 8.01984 10.2335 8.13085C10.2304 9.82015 10.2297 11.5095 10.2316 13.1988C10.2316 14.3417 10.2316 15.4846 10.2316 16.6276L10.2307 16.8202Z" fill="white"/>
</svg>
