<svg width="19" height="20" viewBox="0 0 19 20" fill="none" xmlns="http://www.w3.org/2000/svg">
<path fill-rule="evenodd" clip-rule="evenodd" d="M18.8983 4.13774C17.5543 2.79212 16.2096 1.44764 14.864 0.104298C14.8278 0.0658004 14.788 0.0308732 14.7451 0C14.6989 0.0340934 14.6557 0.0721372 14.616 0.113702C10.8339 3.8958 7.42287 7.30602 3.98957 10.747C3.92862 10.8051 3.8846 10.8787 3.86219 10.9599C3.61598 12.3029 3.36378 13.7212 3.11415 15.1754C3.09905 15.2612 3.10318 15.3492 3.12624 15.4332C3.1493 15.5172 3.19073 15.595 3.24752 15.661C3.31098 15.7348 3.38973 15.7938 3.4783 15.8341C3.56688 15.8744 3.66315 15.895 3.76046 15.8944H3.77072C3.79209 15.8944 3.82458 15.8884 3.85621 15.8833L4.72992 15.7294C5.78487 15.5439 6.87488 15.3524 7.94522 15.1532C8.06904 15.1293 8.18384 15.0716 8.27692 14.9865C11.5957 11.6789 14.964 8.30967 18.2212 5.05078L18.888 4.38395C18.929 4.34515 18.9665 4.30281 19 4.25743C18.9692 4.21496 18.9352 4.17495 18.8983 4.13774ZM16.7721 4.53356C16.7482 4.55151 16.7217 4.56947 16.6935 4.58913C16.6401 4.62251 16.59 4.66087 16.5439 4.70369L16.1617 5.08497C13.4525 7.78904 10.6553 10.5888 7.91017 13.3425C7.67165 13.5819 7.36046 13.8349 6.8612 13.8956C6.46794 13.9435 6.07725 14.0179 5.66433 14.0974C5.48138 14.1324 5.29587 14.1683 5.10608 14.2017L4.74617 14.2666L4.80772 13.9067C4.83935 13.7212 4.87269 13.5408 4.90518 13.3639C4.97784 12.9663 5.04709 12.5945 5.08984 12.214C5.15224 11.6703 5.43607 11.3232 5.70537 11.0556C8.34018 8.43534 11.0058 5.76206 13.591 3.17768L14.3006 2.46726C14.3433 2.4207 14.3816 2.37034 14.4151 2.31679C14.4348 2.28773 14.4545 2.25866 14.4733 2.2313L14.6502 1.99278L17.0106 4.35403L16.7721 4.53356Z" fill="#182C40"/>
<path fill-rule="evenodd" clip-rule="evenodd" d="M17.1739 19.1208C17.165 19.3575 17.0637 19.5814 16.8918 19.7444C16.7199 19.9074 16.4909 19.9965 16.254 19.9928C15.9822 19.9928 15.6907 19.9996 15.335 19.9996H4.87611C3.83997 19.9996 2.80354 19.9996 1.76682 19.9996C1.59925 20.0041 1.43322 19.9666 1.28388 19.8904C1.13455 19.8143 1.00667 19.7019 0.911918 19.5636C0.833502 19.4388 0.788331 19.2959 0.7807 19.1487C0.773068 19.0015 0.80323 18.8547 0.868317 18.7224C1.02647 18.3805 1.31201 18.2137 1.79418 18.1804C1.85659 18.1804 1.919 18.1804 1.9814 18.1804H15.8873C16.0459 18.1795 16.2045 18.1895 16.3618 18.2103C16.8516 18.277 17.1953 18.6609 17.1739 19.1208Z" fill="#182C40"/>
</svg>
