<svg width="18" height="19" viewBox="0 0 18 19" fill="none" xmlns="http://www.w3.org/2000/svg">
<g opacity="0.5">
<path d="M1.5 4.38416L6.68476 7.32188C8.5962 8.40491 9.4038 8.40491 11.3152 7.32188L16.5 4.38416" stroke="#1C1C1C" stroke-width="1.5" stroke-linejoin="round"/>
<path d="M1.51183 9.99086C1.56086 12.2901 1.58537 13.4396 2.43372 14.2912C3.28206 15.1428 4.46275 15.1724 6.82412 15.2317C8.27948 15.2683 9.72053 15.2683 11.1759 15.2317C13.5373 15.1724 14.7179 15.1428 15.5663 14.2912C16.4147 13.4396 16.4392 12.2901 16.4881 9.99086C16.504 9.25158 16.504 8.51673 16.4881 7.77746C16.4392 5.4783 16.4147 4.32872 15.5663 3.47715C14.7179 2.62558 13.5373 2.59592 11.1759 2.53658C9.72053 2.50001 8.27947 2.50001 6.82411 2.53658C4.46275 2.5959 3.28206 2.62556 2.43371 3.47714C1.58537 4.32872 1.56085 5.47829 1.51182 7.77746C1.49605 8.51673 1.49606 9.25158 1.51183 9.99086Z" stroke="#1C1C1C" stroke-width="1.5" stroke-linejoin="round"/>
</g>
</svg>
