<svg width="40" height="33" viewBox="0 0 40 33" fill="none" xmlns="http://www.w3.org/2000/svg">
<path d="M0 22.9046C0 17.5457 4.34425 13.2015 9.70316 13.2015H29.4614C34.8203 13.2015 39.1646 17.5457 39.1646 22.9046V22.9046C39.1646 28.2635 34.8203 32.6078 29.4614 32.6078H9.70316C4.34425 32.6078 0 28.2635 0 22.9046V22.9046Z" fill="#09BDF5"/>
<path d="M24.583 5.19683C21.408 3.74134 17.7565 3.74134 14.5816 5.19683L1.22099 11.3217C0.47699 11.6628 0 12.4062 0 13.2246V13.2246C0 14.0865 0.528292 14.8603 1.33102 15.1742L15.2123 20.602C18.022 21.7006 21.1425 21.7006 23.9522 20.602L37.8335 15.1742C38.6363 14.8603 39.1646 14.0865 39.1646 13.2246V13.2246C39.1646 12.4062 38.6876 11.6628 37.9436 11.3217L24.583 5.19683Z" fill="url(#paint0_linear_7_229)"/>
<path opacity="0.8" d="M8.3711 0C7.05018 0 5.97937 0.945688 5.97937 2.11225V8.79916C5.97937 13.74 9.00779 18.1759 13.6094 19.9752L17.8328 21.6266C18.947 22.0622 20.2177 22.0622 21.3319 21.6266L25.5552 19.9752C30.1569 18.1759 33.1853 13.74 33.1853 8.79916V2.11225C33.1853 0.945688 32.1145 0 30.7936 0H8.3711Z" fill="#68EFF8"/>
<rect x="9.56677" y="3.56444" width="9.56691" height="2.37628" rx="1.18814" fill="#FEFEFE"/>
<path opacity="0.9" d="M9.56677 9.24114C9.56677 8.58494 10.0987 8.05299 10.7549 8.05299H28.4094C29.0655 8.05299 29.5975 8.58494 29.5975 9.24114V9.24114C29.5975 9.89733 29.0655 10.4293 28.4094 10.4293H10.7549C10.0987 10.4293 9.56677 9.89733 9.56677 9.24114V9.24114Z" fill="#FEFEFE"/>
<path opacity="0.8" d="M9.56677 13.7295C9.56677 13.0733 10.0987 12.5414 10.7549 12.5414H24.3733C25.0295 12.5414 25.5615 13.0733 25.5615 13.7295V13.7295C25.5615 14.3857 25.0295 14.9176 24.3733 14.9176H10.7549C10.0987 14.9176 9.56677 14.3857 9.56677 13.7295V13.7295Z" fill="#FEFEFE"/>
<path opacity="0.6" d="M11.5944 19.1873C11.9644 19.332 12.3583 19.4062 12.7556 19.4062H20.6285C20.9587 19.4062 21.2264 19.1698 21.2264 18.8782V17.558C21.2264 17.2664 20.9587 17.0299 20.6285 17.0299H10.1647C9.83447 17.0299 9.56677 17.2664 9.56677 17.558V17.558C9.56677 18.0624 9.87596 18.5153 10.3458 18.699L11.5944 19.1873Z" fill="#FEFEFE"/>
<defs>
<linearGradient id="paint0_linear_7_229" x1="19.5823" y1="2.90436" x2="19.5823" y2="22.3107" gradientUnits="userSpaceOnUse">
<stop stop-color="#00B2FF"/>
<stop offset="1" stop-color="#005ECC"/>
</linearGradient>
</defs>
</svg>
