<svg width="30" height="30" viewBox="0 0 30 30" fill="none" xmlns="http://www.w3.org/2000/svg">
<path d="M18.1111 11.8889C18.4293 11.3815 18.6417 10.815 18.7356 10.2235C18.8296 9.63205 18.8031 9.02767 18.6579 8.44665C18.5126 7.86562 18.2515 7.31991 17.8903 6.84221C17.5291 6.36452 17.0751 5.96468 16.5556 5.66667C14.8607 4.25697 13.2986 2.69488 11.8889 1V23.5556" stroke="#4D7881" stroke-width="2" stroke-linecap="round" stroke-linejoin="round"/>
<path d="M18.1111 19.6667H29H18.1111ZM22.7778 4.11111H29H22.7778ZM25.8889 1V7.22222V1ZM18.1111 25.8889H29H18.1111ZM6.44445 18.1111C5.36764 18.1111 4.31501 18.4304 3.41968 19.0287C2.52434 19.6269 1.82651 20.4772 1.41444 21.4721C1.00236 22.4669 0.894541 23.5616 1.10462 24.6177C1.31469 25.6738 1.83322 26.6439 2.59464 27.4054C3.35606 28.1668 4.32617 28.6853 5.38229 28.8954C6.43841 29.1055 7.5331 28.9976 8.52794 28.5856C9.52279 28.1735 10.3731 27.4757 10.9713 26.5803C11.5696 25.685 11.8889 24.6324 11.8889 23.5556C11.8889 22.1116 11.3153 20.7268 10.2942 19.7057C9.27322 18.6847 7.8884 18.1111 6.44445 18.1111V18.1111Z" stroke="#4D7881" stroke-width="2" stroke-linecap="round" stroke-linejoin="round"/>
</svg>
