<svg width="39" height="33" viewBox="0 0 39 33" fill="none" xmlns="http://www.w3.org/2000/svg">
<path d="M36.5683 6.14666H7.08667H5.53501C4.68004 6.14666 3.98334 5.55997 3.98334 4.84C3.98334 4.12002 4.68004 3.53333 5.53501 3.53333H28.81V4.84H31.9133V2.22666C31.9133 1.50538 31.2182 0.919998 30.3617 0.919998H5.53501C2.96389 0.919998 0.880005 2.67485 0.880005 4.84V27.0533C0.880005 29.9398 3.65904 32.28 7.08667 32.28H36.5683C37.4249 32.28 38.12 31.6946 38.12 30.9733V7.45333C38.12 6.73205 37.4249 6.14666 36.5683 6.14666ZM28.81 21.8267C27.0954 21.8267 25.7067 20.6572 25.7067 19.2133C25.7067 17.7695 27.0954 16.6 28.81 16.6C30.5246 16.6 31.9133 17.7695 31.9133 19.2133C31.9133 20.6572 30.5246 21.8267 28.81 21.8267Z" fill="#978178"/>
</svg>
