<svg width="18" height="19" viewBox="0 0 18 19" fill="none" xmlns="http://www.w3.org/2000/svg">
<g opacity="0.5">
<path d="M10.8682 11.9855H10.875M7.125 11.9855H7.13173" stroke="#1C1C1C" stroke-width="2" stroke-linecap="round" stroke-linejoin="round"/>
<path d="M3.20086 14.494C3.36952 15.7467 4.4071 16.7281 5.66974 16.7861C6.7322 16.835 7.81147 16.8605 9 16.8605C10.1885 16.8605 11.2678 16.835 12.3302 16.7861C13.5929 16.7281 14.6305 15.7467 14.7991 14.494C14.9092 13.6765 15 12.8387 15 11.9855C15 11.1323 14.9092 10.2944 14.7991 9.47695C14.6305 8.22422 13.5929 7.24284 12.3302 7.18479C11.2678 7.13595 10.1885 7.11047 9 7.11047C7.81147 7.11047 6.7322 7.13595 5.66974 7.18479C4.4071 7.24284 3.36952 8.22422 3.20086 9.47695C3.09079 10.2944 3 11.1323 3 11.9855C3 12.8387 3.09079 13.6765 3.20086 14.494Z" stroke="#1C1C1C" stroke-width="1.5"/>
<path d="M5.625 7.11048V5.23547C5.625 3.37151 7.13604 1.86047 9 1.86047C10.864 1.86047 12.375 3.37151 12.375 5.23547V7.11048" stroke="#1C1C1C" stroke-width="1.5" stroke-linecap="round" stroke-linejoin="round"/>
</g>
</svg>
