<svg width="19" height="20" viewBox="0 0 19 20" fill="none" xmlns="http://www.w3.org/2000/svg">
<g opacity="0.5">
<path d="M3.45032 10.9738L5.07792 9.81801C5.53704 9.49201 6.00254 9.27351 6.53362 9.13209C7.14334 8.96967 7.41667 8.63701 7.41667 7.92584C7.41667 6.12191 11.5833 5.92996 11.5833 7.92584C11.5833 8.63701 11.8567 8.96967 12.4664 9.13209C13.0017 9.27459 13.4666 9.49451 13.9221 9.81801L15.5497 10.9738C16.2862 11.4968 16.6289 11.7496 16.8202 12.1516C17 12.5298 17 12.9733 17 13.8603C17 15.4551 17 16.2525 16.5535 16.7637C16.0127 17.3828 14.6067 17.3296 13.7431 17.3296H5.25694C4.39331 17.3296 3.01591 17.4155 2.4465 16.7637C2 16.2525 2 15.4551 2 13.8603C2 12.9733 2 12.5298 2.17987 12.1516C2.37105 11.7496 2.71385 11.4968 3.45032 10.9738Z" stroke="#1C1C1C" stroke-width="1.5"/>
<path d="M11.1666 13.1667C11.1666 14.0872 10.4204 14.8333 9.49992 14.8333C8.57942 14.8333 7.83325 14.0872 7.83325 13.1667C7.83325 12.2462 8.57942 11.5 9.49992 11.5C10.4204 11.5 11.1666 12.2462 11.1666 13.1667Z" stroke="#1C1C1C" stroke-width="1.5"/>
<path d="M5.3002 2.08143C4.2015 2.39512 3.41162 2.78426 2.68879 3.25379C1.5444 3.99716 1.05377 5.3367 1.18847 6.62927C1.24541 7.17556 1.68395 7.43675 2.19249 7.29546C2.57884 7.18809 2.96582 7.08358 3.34976 6.9697C4.47263 6.63664 4.73674 6.23176 4.89278 5.08237L5.3002 2.08143ZM5.3002 2.08143C8.01558 1.30619 10.9846 1.30619 13.7 2.08143M13.7 2.08143C14.7987 2.39512 15.5886 2.78426 16.3113 3.25379C17.4558 3.99716 17.9464 5.3367 17.8117 6.62927C17.7548 7.17556 17.3163 7.43675 16.8077 7.29546C16.4213 7.18809 16.0343 7.08358 15.6504 6.9697C14.5275 6.63664 14.2634 6.23176 14.1074 5.08237L13.7 2.08143Z" stroke="#1C1C1C" stroke-width="1.5" stroke-linejoin="round"/>
</g>
</svg>
