<svg width="18" height="19" viewBox="0 0 18 19" fill="none" xmlns="http://www.w3.org/2000/svg">
<path d="M9 2.51251C10.2375 2.51251 11.25 3.52501 11.25 4.76251C11.25 6.00001 10.2375 7.01251 9 7.01251C7.7625 7.01251 6.75 6.00001 6.75 4.76251C6.75 3.52501 7.7625 2.51251 9 2.51251ZM9 13.7625C12.0375 13.7625 15.525 15.2138 15.75 16.0125H2.25C2.50875 15.2025 5.97375 13.7625 9 13.7625ZM9 0.262512C6.51375 0.262512 4.5 2.27626 4.5 4.76251C4.5 7.24876 6.51375 9.26251 9 9.26251C11.4862 9.26251 13.5 7.24876 13.5 4.76251C13.5 2.27626 11.4862 0.262512 9 0.262512ZM9 11.5125C5.99625 11.5125 0 13.02 0 16.0125L0 18.2625L18 18.2625V16.0125C18 13.02 12.0037 11.5125 9 11.5125Z" fill="#848688"/>
</svg>
