<svg width="51" height="39" viewBox="0 0 51 39" fill="none" xmlns="http://www.w3.org/2000/svg">
<path d="M46.75 27.2025V7.58875C46.75 5.63875 44.6675 4.1925 42.1387 4.355H42.0113C37.5488 4.6475 30.77 6.38625 26.9875 8.20625L26.6262 8.385C26.01 8.6775 24.99 8.6775 24.3738 8.385L23.8425 8.14125C20.06 6.3375 13.3025 4.615 8.84 4.33875C6.31125 4.17625 4.25 5.63875 4.25 7.5725V27.2025C4.25 28.7625 5.9075 30.225 7.9475 30.42L8.56375 30.485C13.175 30.9563 20.2938 32.7438 24.3738 34.45L24.4588 34.4825C25.0325 34.7263 25.9463 34.7263 26.4988 34.4825C30.5788 32.76 37.7188 30.9563 42.3513 30.485L43.0525 30.42C45.0925 30.225 46.75 28.7625 46.75 27.2025Z" stroke="#4D7881" stroke-width="1.5" stroke-linecap="round" stroke-linejoin="round"/>
<path d="M25.5 8.92125V33.2962" stroke="#4D7881" stroke-width="1.5" stroke-linecap="round" stroke-linejoin="round"/>
<path d="M16.4688 13.7962H11.6875" stroke="#4D7881" stroke-width="1.5" stroke-linecap="round" stroke-linejoin="round"/>
<path d="M18.0625 18.6712H11.6875" stroke="#4D7881" stroke-width="1.5" stroke-linecap="round" stroke-linejoin="round"/>
</svg>
