<svg width="20" height="30" viewBox="0 0 20 30" fill="none" xmlns="http://www.w3.org/2000/svg">
<path d="M16.75 29H3.25M10 22.7778C7.61305 22.7778 5.32387 22.1222 3.63604 20.9553C1.94821 19.7884 1 18.2058 1 16.5556V7.22222C1 5.57199 1.94821 3.98934 3.63604 2.82245C5.32387 1.65555 7.61305 1 10 1V1C12.3869 1 14.6761 1.65555 16.364 2.82245C18.0518 3.98934 19 5.57199 19 7.22222V16.5556C19 18.2058 18.0518 19.7884 16.364 20.9553C14.6761 22.1222 12.3869 22.7778 10 22.7778ZM10 22.7778V29V22.7778Z" stroke="#4D7881" stroke-width="2" stroke-linecap="round" stroke-linejoin="round"/>
</svg>
