<svg width="41" height="55" viewBox="0 0 41 55" fill="none" xmlns="http://www.w3.org/2000/svg">
<path d="M39.8125 0H30.1C29.925 0 29.8375 0.0874998 29.75 0.175C29.6625 0.2625 29.6625 0.4375 29.6625 0.6125L31.5875 8.4C31.675 8.575 31.85 8.75 32.025 8.75H37.8C38.0625 8.75 38.2375 8.575 38.2375 8.4L40.1625 0.6125C40.1625 0.4375 40.1625 0.35 40.075 0.175C40.075 0.0874998 39.9875 0 39.8125 0ZM37.5375 7.7875H32.4625L30.8 0.9625H39.2875L37.5375 7.7875Z" fill="#2A76BC"/>
<path d="M32.1125 19.425H9.80001L5.77501 15.4V8.66251C5.77501 8.48751 5.77501 8.31251 5.68751 8.13751C5.42501 8.40001 5.07501 8.57501 4.72501 8.75001V15.575C4.72501 15.6625 4.81251 15.8375 4.90001 15.925L9.27501 20.3C9.36251 20.3875 9.45001 20.475 9.62501 20.475H32.1125C32.9 20.475 33.6 21.0875 33.6 21.9625C33.6 22.75 32.9875 23.45 32.1125 23.45H16.5375C16.275 23.45 16.0125 23.625 16.0125 23.975V33.1625H9.18751V24.7625C9.18751 24.675 9.10001 24.5 9.01251 24.4125L2.18751 17.5875C1.92501 17.325 1.75001 16.975 1.75001 16.5375V8.92501C1.40001 8.75001 1.13751 8.57501 0.787513 8.31251C0.787513 8.48751 0.700012 8.66251 0.700012 8.83751V16.625C0.700012 17.2375 0.962513 17.85 1.40001 18.375L8.13751 25.1125V33.775V42.9625H4.72501C3.41251 42.9625 2.27501 44.0125 2.27501 45.4125C2.27501 46.725 3.32501 47.775 4.63751 47.8625L2.18751 50.225C1.75001 50.6625 1.48751 51.275 1.48751 51.975C1.48751 52.675 1.75001 53.2 2.18751 53.725C2.62501 54.1625 3.23751 54.425 3.93751 54.425C4.63751 54.425 5.16251 54.1625 5.68751 53.725L11.8125 47.6H14.7C16.0125 47.6 17.15 46.55 17.15 45.15V33.425V24.2375H32.2C33.5125 24.2375 34.65 23.1875 34.65 21.7875C34.475 20.475 33.425 19.425 32.1125 19.425ZM3.50001 45.0625C3.50001 44.275 4.11251 43.575 4.98751 43.575H8.31251V44.0125L5.86251 46.4625H4.90001C4.11251 46.55 3.50001 45.9375 3.50001 45.0625ZM16.1 43.1375V45.0625C16.1 45.85 15.4875 46.55 14.6125 46.55H12.6875C13.0375 46.1125 13.2125 45.5875 13.2125 45.0625V43.575V42.6125V37.275C13.2125 37.0125 13.0375 36.75 12.6875 36.75C12.425 36.75 12.1625 36.925 12.1625 37.275V42.6125V43.575V45.0625C12.1625 45.4125 11.9875 45.85 11.725 46.1125L11.2875 46.55L10.325 47.5125L4.90001 52.9375C4.37501 53.4625 3.41251 53.4625 2.88751 52.9375C2.62501 52.675 2.45001 52.325 2.45001 51.8875C2.45001 51.45 2.62501 51.1 2.88751 50.8375L6.30001 47.425L7.26251 46.4625L9.18751 44.5375C9.27501 44.45 9.36251 44.3625 9.36251 44.1875V43.575V42.6125V33.8625H16.1875V43.1375H16.1Z" fill="#4D7881"/>
<path d="M12.6875 18.4625C14.525 18.4625 16.1 16.975 16.1 15.05C16.1 13.125 14.6125 11.6375 12.6875 11.6375C10.85 11.6375 9.27502 13.125 9.27502 15.05C9.27502 16.975 10.85 18.4625 12.6875 18.4625ZM12.6875 12.6C14 12.6 15.1375 13.65 15.1375 15.05C15.1375 16.3625 14.0875 17.5 12.6875 17.5C11.2875 17.5 10.2375 16.45 10.2375 15.05C10.2375 13.7375 11.375 12.6 12.6875 12.6Z" fill="#4D7881"/>
<path d="M3.325 9.10002C3.85 9.10002 4.375 9.01252 4.8125 8.75002C5.1625 8.57502 5.425 8.40002 5.775 8.13752C6.3875 7.52502 6.825 6.65002 6.825 5.68752C6.825 3.85002 5.3375 2.27502 3.4125 2.27502C1.4875 2.27502 0 3.76252 0 5.68752C0 6.65002 0.350001 7.52502 1.05 8.13752C1.3125 8.40002 1.6625 8.57502 2.0125 8.75002C2.275 8.92502 2.8 9.10002 3.325 9.10002ZM1.4 7.17502C1.05 6.73752 0.875 6.30002 0.875 5.68752C0.875 4.37502 1.925 3.23752 3.325 3.23752C4.725 3.23752 5.775 4.28752 5.775 5.68752C5.775 6.21252 5.6 6.73752 5.25 7.17502C5.075 7.43752 4.8125 7.61252 4.55 7.78752C4.2 7.96252 3.7625 8.13752 3.325 8.13752C2.8875 8.13752 2.45 8.05002 2.1 7.78752C1.8375 7.61252 1.575 7.43752 1.4 7.17502Z" fill="#EE2B2F"/>
</svg>
